<svg width="1653" height="627" viewBox="0 0 1653 627" fill="none" xmlns="http://www.w3.org/2000/svg">
<rect width="1653" height="627" rx="20" fill="#101E37"/>
<path d="M729.096 269.5L709.256 240.06V269.5H684.168V174.78H709.256V225.852L729.096 197.692H759.176L730.888 233.788L759.688 269.5H729.096ZM779.715 191.036C775.278 191.036 771.694 189.841 768.963 187.452C766.318 184.977 764.995 181.905 764.995 178.236C764.995 174.481 766.318 171.367 768.963 168.892C771.694 166.417 775.278 165.18 779.715 165.18C784.067 165.18 787.566 166.417 790.211 168.892C792.942 171.367 794.307 174.481 794.307 178.236C794.307 181.905 792.942 184.977 790.211 187.452C787.566 189.841 784.067 191.036 779.715 191.036ZM792.131 197.692V269.5H767.043V197.692H792.131ZM900.242 197.052C909.287 197.052 916.37 199.783 921.49 205.244C926.695 210.705 929.298 218.172 929.298 227.644V269.5H904.21V230.972C904.21 227.132 903.143 224.145 901.01 222.012C898.877 219.879 895.975 218.812 892.306 218.812C888.637 218.812 885.735 219.879 883.602 222.012C881.469 224.145 880.402 227.132 880.402 230.972V269.5H855.314V230.972C855.314 227.132 854.247 224.145 852.114 222.012C850.066 219.879 847.207 218.812 843.538 218.812C839.783 218.812 836.839 219.879 834.706 222.012C832.573 224.145 831.506 227.132 831.506 230.972V269.5H806.418V197.692H831.506V207.164C833.725 204.092 836.583 201.66 840.082 199.868C843.666 197.991 847.762 197.052 852.37 197.052C857.661 197.052 862.354 198.204 866.45 200.508C870.631 202.812 873.917 206.055 876.306 210.236C878.866 206.311 882.237 203.153 886.418 200.764C890.599 198.289 895.207 197.052 900.242 197.052ZM955.715 191.036C951.278 191.036 947.694 189.841 944.963 187.452C942.318 184.977 940.995 181.905 940.995 178.236C940.995 174.481 942.318 171.367 944.963 168.892C947.694 166.417 951.278 165.18 955.715 165.18C960.067 165.18 963.566 166.417 966.211 168.892C968.942 171.367 970.307 174.481 970.307 178.236C970.307 181.905 968.942 184.977 966.211 187.452C963.566 189.841 960.067 191.036 955.715 191.036ZM968.131 197.692V269.5H943.043V197.692H968.131Z" fill="#5EEAD4"/>
<path d="M277.533 376.66H270.493V408.5H254.733V376.66H249.853V363.62H254.733V363.22C254.733 357.46 256.413 353.06 259.773 350.02C263.186 346.927 268.066 345.38 274.413 345.38C275.693 345.38 276.679 345.407 277.373 345.46V358.82C276.946 358.767 276.359 358.74 275.613 358.74C273.906 358.74 272.653 359.14 271.853 359.94C271.053 360.687 270.599 361.913 270.493 363.62H277.533V376.66ZM298.816 371.54C300.576 368.98 302.71 366.953 305.216 365.46C307.723 363.967 310.416 363.22 313.296 363.22V379.94H308.896C305.483 379.94 302.95 380.607 301.296 381.94C299.643 383.273 298.816 385.593 298.816 388.9V408.5H283.136V363.62H298.816V371.54ZM339.798 409.06C335.318 409.06 331.291 408.127 327.718 406.26C324.198 404.393 321.424 401.727 319.398 398.26C317.371 394.793 316.358 390.713 316.358 386.02C316.358 381.38 317.371 377.327 319.398 373.86C321.478 370.393 324.278 367.727 327.798 365.86C331.371 363.993 335.398 363.06 339.878 363.06C344.358 363.06 348.358 363.993 351.878 365.86C355.451 367.727 358.251 370.393 360.278 373.86C362.358 377.327 363.398 381.38 363.398 386.02C363.398 390.66 362.358 394.74 360.278 398.26C358.251 401.727 355.451 404.393 351.878 406.26C348.304 408.127 344.278 409.06 339.798 409.06ZM339.798 395.46C341.984 395.46 343.798 394.66 345.238 393.06C346.731 391.407 347.478 389.06 347.478 386.02C347.478 382.98 346.731 380.66 345.238 379.06C343.798 377.46 342.011 376.66 339.878 376.66C337.744 376.66 335.958 377.46 334.518 379.06C333.078 380.66 332.358 382.98 332.358 386.02C332.358 389.113 333.051 391.46 334.438 393.06C335.824 394.66 337.611 395.46 339.798 395.46ZM399.137 363.22C404.31 363.22 408.417 364.953 411.457 368.42C414.497 371.833 416.017 376.473 416.017 382.34V408.5H400.337V384.42C400.337 381.86 399.67 379.86 398.337 378.42C397.004 376.927 395.217 376.18 392.977 376.18C390.63 376.18 388.79 376.927 387.457 378.42C386.124 379.86 385.457 381.86 385.457 384.42V408.5H369.777V363.62H385.457V370.02C386.844 367.993 388.71 366.367 391.057 365.14C393.404 363.86 396.097 363.22 399.137 363.22ZM451.101 395.14V408.5H444.301C432.834 408.5 427.101 402.82 427.101 391.46V376.66H421.581V363.62H427.101V352.74H442.861V363.62H451.021V376.66H442.861V391.7C442.861 392.927 443.127 393.807 443.661 394.34C444.247 394.873 445.207 395.14 446.541 395.14H451.101ZM501.173 385.54C501.173 386.767 501.093 387.993 500.933 389.22H471.253C471.413 391.673 472.079 393.513 473.253 394.74C474.479 395.913 476.026 396.5 477.893 396.5C480.506 396.5 482.373 395.327 483.493 392.98H500.213C499.519 396.073 498.159 398.847 496.133 401.3C494.159 403.7 491.653 405.593 488.613 406.98C485.573 408.367 482.213 409.06 478.533 409.06C474.106 409.06 470.159 408.127 466.693 406.26C463.279 404.393 460.586 401.727 458.613 398.26C456.693 394.793 455.733 390.713 455.733 386.02C455.733 381.327 456.693 377.273 458.613 373.86C460.533 370.393 463.199 367.727 466.613 365.86C470.079 363.993 474.053 363.06 478.533 363.06C482.959 363.06 486.879 363.967 490.293 365.78C493.706 367.593 496.373 370.207 498.293 373.62C500.213 376.98 501.173 380.953 501.173 385.54ZM485.173 381.62C485.173 379.7 484.533 378.207 483.253 377.14C481.973 376.02 480.373 375.46 478.453 375.46C476.533 375.46 474.959 375.993 473.733 377.06C472.506 378.073 471.706 379.593 471.333 381.62H485.173ZM536.949 363.22C542.123 363.22 546.229 364.953 549.269 368.42C552.309 371.833 553.829 376.473 553.829 382.34V408.5H538.149V384.42C538.149 381.86 537.483 379.86 536.149 378.42C534.816 376.927 533.029 376.18 530.789 376.18C528.443 376.18 526.603 376.927 525.269 378.42C523.936 379.86 523.269 381.86 523.269 384.42V408.5H507.589V363.62H523.269V370.02C524.656 367.993 526.523 366.367 528.869 365.14C531.216 363.86 533.909 363.22 536.949 363.22ZM559.873 386.02C559.873 381.38 560.7 377.327 562.353 373.86C564.06 370.393 566.38 367.727 569.313 365.86C572.246 363.993 575.5 363.06 579.073 363.06C581.953 363.06 584.513 363.673 586.753 364.9C589.046 366.073 590.833 367.7 592.113 369.78V349.3H607.873V408.5H592.113V402.26C590.886 404.34 589.153 405.993 586.913 407.22C584.673 408.447 582.033 409.06 578.993 409.06C575.42 409.06 572.166 408.127 569.233 406.26C566.353 404.393 564.06 401.727 562.353 398.26C560.7 394.74 559.873 390.66 559.873 386.02ZM592.193 386.02C592.193 383.14 591.393 380.873 589.793 379.22C588.246 377.567 586.326 376.74 584.033 376.74C581.686 376.74 579.74 377.567 578.193 379.22C576.646 380.82 575.873 383.087 575.873 386.02C575.873 388.9 576.646 391.193 578.193 392.9C579.74 394.553 581.686 395.38 584.033 395.38C586.326 395.38 588.246 394.553 589.793 392.9C591.393 391.247 592.193 388.953 592.193 386.02ZM652.328 367.94C657.928 367.94 662.488 372.5 662.488 378.1C662.488 383.78 657.928 388.34 652.328 388.34C646.648 388.34 642.088 383.78 642.088 378.1C642.088 372.5 646.648 367.94 652.328 367.94ZM742.728 363.62V408.5H726.968V402.1C725.635 404.127 723.795 405.78 721.448 407.06C719.101 408.287 716.408 408.9 713.368 408.9C708.141 408.9 704.008 407.193 700.968 403.78C697.981 400.313 696.488 395.62 696.488 389.7V363.62H712.088V387.7C712.088 390.26 712.755 392.287 714.088 393.78C715.475 395.22 717.288 395.94 719.528 395.94C721.821 395.94 723.635 395.22 724.968 393.78C726.301 392.287 726.968 390.26 726.968 387.7V363.62H742.728ZM759.572 359.46C756.799 359.46 754.559 358.713 752.852 357.22C751.199 355.673 750.372 353.753 750.372 351.46C750.372 349.113 751.199 347.167 752.852 345.62C754.559 344.073 756.799 343.3 759.572 343.3C762.292 343.3 764.479 344.073 766.132 345.62C767.839 347.167 768.692 349.113 768.692 351.46C768.692 353.753 767.839 355.673 766.132 357.22C764.479 358.713 762.292 359.46 759.572 359.46ZM767.332 363.62V408.5H751.652V363.62H767.332ZM837.494 363.62V408.5H821.734V402.1C820.4 404.127 818.56 405.78 816.214 407.06C813.867 408.287 811.174 408.9 808.134 408.9C802.907 408.9 798.774 407.193 795.734 403.78C792.747 400.313 791.254 395.62 791.254 389.7V363.62H806.854V387.7C806.854 390.26 807.52 392.287 808.854 393.78C810.24 395.22 812.054 395.94 814.294 395.94C816.587 395.94 818.4 395.22 819.734 393.78C821.067 392.287 821.734 390.26 821.734 387.7V363.62H837.494ZM874.418 408.5L866.338 397.22L859.938 408.5H842.738L857.698 385.22L842.098 363.62H859.698L867.778 374.9L874.258 363.62H891.458L876.178 386.5L892.018 408.5H874.418ZM932.172 367.94C937.772 367.94 942.332 372.5 942.332 378.1C942.332 383.78 937.772 388.34 932.172 388.34C926.492 388.34 921.932 383.78 921.932 378.1C921.932 372.5 926.492 367.94 932.172 367.94ZM992.332 349.3V408.5H976.652V349.3H992.332ZM998.701 386.02C998.701 381.38 999.528 377.327 1001.18 373.86C1002.89 370.393 1005.18 367.727 1008.06 365.86C1010.99 363.993 1014.25 363.06 1017.82 363.06C1020.91 363.06 1023.58 363.673 1025.82 364.9C1028.06 366.127 1029.79 367.78 1031.02 369.86V363.62H1046.7V408.5H1031.02V402.26C1029.79 404.34 1028.03 405.993 1025.74 407.22C1023.5 408.447 1020.86 409.06 1017.82 409.06C1014.25 409.06 1010.99 408.127 1008.06 406.26C1005.18 404.393 1002.89 401.727 1001.18 398.26C999.528 394.74 998.701 390.66 998.701 386.02ZM1031.02 386.02C1031.02 383.14 1030.22 380.873 1028.62 379.22C1027.07 377.567 1025.15 376.74 1022.86 376.74C1020.51 376.74 1018.57 377.567 1017.02 379.22C1015.47 380.82 1014.7 383.087 1014.7 386.02C1014.7 388.9 1015.47 391.193 1017.02 392.9C1018.57 394.553 1020.51 395.38 1022.86 395.38C1025.15 395.38 1027.07 394.553 1028.62 392.9C1030.22 391.247 1031.02 388.953 1031.02 386.02ZM1085 363.22C1090.17 363.22 1094.28 364.953 1097.32 368.42C1100.36 371.833 1101.88 376.473 1101.88 382.34V408.5H1086.2V384.42C1086.2 381.86 1085.53 379.86 1084.2 378.42C1082.86 376.927 1081.08 376.18 1078.84 376.18C1076.49 376.18 1074.65 376.927 1073.32 378.42C1071.98 379.86 1071.32 381.86 1071.32 384.42V408.5H1055.64V363.62H1071.32V370.02C1072.7 367.993 1074.57 366.367 1076.92 365.14C1079.26 363.86 1081.96 363.22 1085 363.22ZM1127.04 363.06C1130.08 363.06 1132.72 363.673 1134.96 364.9C1137.25 366.127 1139.01 367.78 1140.24 369.86V363.62H1155.92V408.02C1155.92 412.233 1155.12 416.02 1153.52 419.38C1151.92 422.793 1149.41 425.513 1146 427.54C1142.64 429.567 1138.37 430.58 1133.2 430.58C1126.27 430.58 1120.72 428.953 1116.56 425.7C1112.4 422.447 1110.03 418.02 1109.44 412.42H1124.88C1125.2 413.86 1126 414.98 1127.28 415.78C1128.56 416.58 1130.21 416.98 1132.24 416.98C1137.57 416.98 1140.24 413.993 1140.24 408.02V402.26C1139.01 404.34 1137.25 405.993 1134.96 407.22C1132.72 408.447 1130.08 409.06 1127.04 409.06C1123.47 409.06 1120.21 408.127 1117.28 406.26C1114.4 404.393 1112.11 401.727 1110.4 398.26C1108.75 394.74 1107.92 390.66 1107.92 386.02C1107.92 381.38 1108.75 377.327 1110.4 373.86C1112.11 370.393 1114.4 367.727 1117.28 365.86C1120.21 363.993 1123.47 363.06 1127.04 363.06ZM1140.24 386.02C1140.24 383.14 1139.44 380.873 1137.84 379.22C1136.29 377.567 1134.37 376.74 1132.08 376.74C1129.73 376.74 1127.79 377.567 1126.24 379.22C1124.69 380.82 1123.92 383.087 1123.92 386.02C1123.92 388.9 1124.69 391.193 1126.24 392.9C1127.79 394.553 1129.73 395.38 1132.08 395.38C1134.37 395.38 1136.29 394.553 1137.84 392.9C1139.44 391.247 1140.24 388.953 1140.24 386.02ZM1210.78 363.62V408.5H1195.02V402.1C1193.68 404.127 1191.84 405.78 1189.5 407.06C1187.15 408.287 1184.46 408.9 1181.42 408.9C1176.19 408.9 1172.06 407.193 1169.02 403.78C1166.03 400.313 1164.54 395.62 1164.54 389.7V363.62H1180.14V387.7C1180.14 390.26 1180.8 392.287 1182.14 393.78C1183.52 395.22 1185.34 395.94 1187.58 395.94C1189.87 395.94 1191.68 395.22 1193.02 393.78C1194.35 392.287 1195.02 390.26 1195.02 387.7V363.62H1210.78ZM1217.14 386.02C1217.14 381.38 1217.97 377.327 1219.62 373.86C1221.33 370.393 1223.62 367.727 1226.5 365.86C1229.43 363.993 1232.69 363.06 1236.26 363.06C1239.35 363.06 1242.02 363.673 1244.26 364.9C1246.5 366.127 1248.23 367.78 1249.46 369.86V363.62H1265.14V408.5H1249.46V402.26C1248.23 404.34 1246.47 405.993 1244.18 407.22C1241.94 408.447 1239.3 409.06 1236.26 409.06C1232.69 409.06 1229.43 408.127 1226.5 406.26C1223.62 404.393 1221.33 401.727 1219.62 398.26C1217.97 394.74 1217.14 390.66 1217.14 386.02ZM1249.46 386.02C1249.46 383.14 1248.66 380.873 1247.06 379.22C1245.51 377.567 1243.59 376.74 1241.3 376.74C1238.95 376.74 1237.01 377.567 1235.46 379.22C1233.91 380.82 1233.14 383.087 1233.14 386.02C1233.14 388.9 1233.91 391.193 1235.46 392.9C1237.01 394.553 1238.95 395.38 1241.3 395.38C1243.59 395.38 1245.51 394.553 1247.06 392.9C1248.66 391.247 1249.46 388.953 1249.46 386.02ZM1290.63 363.06C1293.67 363.06 1296.31 363.673 1298.55 364.9C1300.85 366.127 1302.61 367.78 1303.83 369.86V363.62H1319.51V408.02C1319.51 412.233 1318.71 416.02 1317.11 419.38C1315.51 422.793 1313.01 425.513 1309.59 427.54C1306.23 429.567 1301.97 430.58 1296.79 430.58C1289.86 430.58 1284.31 428.953 1280.15 425.7C1275.99 422.447 1273.62 418.02 1273.03 412.42H1288.47C1288.79 413.86 1289.59 414.98 1290.87 415.78C1292.15 416.58 1293.81 416.98 1295.83 416.98C1301.17 416.98 1303.83 413.993 1303.83 408.02V402.26C1302.61 404.34 1300.85 405.993 1298.55 407.22C1296.31 408.447 1293.67 409.06 1290.63 409.06C1287.06 409.06 1283.81 408.127 1280.87 406.26C1277.99 404.393 1275.7 401.727 1273.99 398.26C1272.34 394.74 1271.51 390.66 1271.51 386.02C1271.51 381.38 1272.34 377.327 1273.99 373.86C1275.7 370.393 1277.99 367.727 1280.87 365.86C1283.81 363.993 1287.06 363.06 1290.63 363.06ZM1303.83 386.02C1303.83 383.14 1303.03 380.873 1301.43 379.22C1299.89 377.567 1297.97 376.74 1295.67 376.74C1293.33 376.74 1291.38 377.567 1289.83 379.22C1288.29 380.82 1287.51 383.087 1287.51 386.02C1287.51 388.9 1288.29 391.193 1289.83 392.9C1291.38 394.553 1293.33 395.38 1295.67 395.38C1297.97 395.38 1299.89 394.553 1301.43 392.9C1303.03 391.247 1303.83 388.953 1303.83 386.02ZM1371.33 385.54C1371.33 386.767 1371.25 387.993 1371.09 389.22H1341.41C1341.57 391.673 1342.24 393.513 1343.41 394.74C1344.64 395.913 1346.18 396.5 1348.05 396.5C1350.66 396.5 1352.53 395.327 1353.65 392.98H1370.37C1369.68 396.073 1368.32 398.847 1366.29 401.3C1364.32 403.7 1361.81 405.593 1358.77 406.98C1355.73 408.367 1352.37 409.06 1348.69 409.06C1344.26 409.06 1340.32 408.127 1336.85 406.26C1333.44 404.393 1330.74 401.727 1328.77 398.26C1326.85 394.793 1325.89 390.713 1325.89 386.02C1325.89 381.327 1326.85 377.273 1328.77 373.86C1330.69 370.393 1333.36 367.727 1336.77 365.86C1340.24 363.993 1344.21 363.06 1348.69 363.06C1353.12 363.06 1357.04 363.967 1360.45 365.78C1363.86 367.593 1366.53 370.207 1368.45 373.62C1370.37 376.98 1371.33 380.953 1371.33 385.54ZM1355.33 381.62C1355.33 379.7 1354.69 378.207 1353.41 377.14C1352.13 376.02 1350.53 375.46 1348.61 375.46C1346.69 375.46 1345.12 375.993 1343.89 377.06C1342.66 378.073 1341.86 379.593 1341.49 381.62H1355.33ZM1396.87 409.06C1392.81 409.06 1389.19 408.393 1385.99 407.06C1382.84 405.673 1380.33 403.807 1378.47 401.46C1376.65 399.06 1375.64 396.367 1375.43 393.38H1390.63C1390.84 394.82 1391.51 395.94 1392.63 396.74C1393.75 397.54 1395.13 397.94 1396.79 397.94C1398.07 397.94 1399.08 397.673 1399.83 397.14C1400.57 396.607 1400.95 395.913 1400.95 395.06C1400.95 393.94 1400.33 393.113 1399.11 392.58C1397.88 392.047 1395.85 391.46 1393.03 390.82C1389.83 390.18 1387.16 389.46 1385.03 388.66C1382.89 387.86 1381.03 386.553 1379.43 384.74C1377.88 382.927 1377.11 380.473 1377.11 377.38C1377.11 374.713 1377.83 372.313 1379.27 370.18C1380.71 367.993 1382.81 366.26 1385.59 364.98C1388.41 363.7 1391.8 363.06 1395.75 363.06C1401.61 363.06 1406.23 364.5 1409.59 367.38C1412.95 370.26 1414.89 374.047 1415.43 378.74H1401.27C1401 377.3 1400.36 376.207 1399.35 375.46C1398.39 374.66 1397.08 374.26 1395.43 374.26C1394.15 374.26 1393.16 374.5 1392.47 374.98C1391.83 375.46 1391.51 376.127 1391.51 376.98C1391.51 378.047 1392.12 378.873 1393.35 379.46C1394.57 379.993 1396.55 380.553 1399.27 381.14C1402.52 381.833 1405.21 382.607 1407.35 383.46C1409.53 384.313 1411.43 385.7 1413.03 387.62C1414.68 389.487 1415.51 392.047 1415.51 395.3C1415.51 397.913 1414.73 400.26 1413.19 402.34C1411.69 404.42 1409.53 406.073 1406.71 407.3C1403.93 408.473 1400.65 409.06 1396.87 409.06Z" fill="#64758B"/>
<path d="M265.394 461.56L267.914 452.536H272.93L268.298 466H262.442L257.81 452.536H262.826L265.394 461.56ZM288.3 452.536V466H283.572V464.08C283.172 464.688 282.62 465.184 281.916 465.568C281.212 465.936 280.404 466.12 279.492 466.12C277.924 466.12 276.684 465.608 275.772 464.584C274.876 463.544 274.428 462.136 274.428 460.36V452.536H279.108V459.76C279.108 460.528 279.308 461.136 279.708 461.584C280.124 462.016 280.668 462.232 281.34 462.232C282.028 462.232 282.572 462.016 282.972 461.584C283.372 461.136 283.572 460.528 283.572 459.76V452.536H288.3ZM303.841 459.112C303.841 459.48 303.817 459.848 303.769 460.216H294.865C294.913 460.952 295.113 461.504 295.465 461.872C295.833 462.224 296.297 462.4 296.857 462.4C297.641 462.4 298.201 462.048 298.537 461.344H303.553C303.345 462.272 302.937 463.104 302.329 463.84C301.737 464.56 300.985 465.128 300.073 465.544C299.161 465.96 298.153 466.168 297.049 466.168C295.721 466.168 294.537 465.888 293.497 465.328C292.473 464.768 291.665 463.968 291.073 462.928C290.497 461.888 290.209 460.664 290.209 459.256C290.209 457.848 290.497 456.632 291.073 455.608C291.649 454.568 292.449 453.768 293.473 453.208C294.513 452.648 295.705 452.368 297.049 452.368C298.377 452.368 299.553 452.64 300.577 453.184C301.601 453.728 302.401 454.512 302.977 455.536C303.553 456.544 303.841 457.736 303.841 459.112ZM299.041 457.936C299.041 457.36 298.849 456.912 298.465 456.592C298.081 456.256 297.601 456.088 297.025 456.088C296.449 456.088 295.977 456.248 295.609 456.568C295.241 456.872 295.001 457.328 294.889 457.936H299.041ZM312.712 451.288C311.88 451.288 311.208 451.064 310.696 450.616C310.2 450.152 309.952 449.576 309.952 448.888C309.952 448.184 310.2 447.6 310.696 447.136C311.208 446.672 311.88 446.44 312.712 446.44C313.528 446.44 314.184 446.672 314.68 447.136C315.192 447.6 315.448 448.184 315.448 448.888C315.448 449.576 315.192 450.152 314.68 450.616C314.184 451.064 313.528 451.288 312.712 451.288ZM315.064 467.32C315.064 470.728 313.352 472.432 309.928 472.432H308.224V468.424H309.232C309.632 468.424 309.92 468.344 310.096 468.184C310.272 468.024 310.36 467.76 310.36 467.392V452.536H315.064V467.32ZM323.455 466.168C322.239 466.168 321.151 465.968 320.191 465.568C319.247 465.152 318.495 464.592 317.935 463.888C317.391 463.168 317.087 462.36 317.023 461.464H321.583C321.647 461.896 321.847 462.232 322.183 462.472C322.519 462.712 322.935 462.832 323.431 462.832C323.815 462.832 324.119 462.752 324.343 462.592C324.567 462.432 324.679 462.224 324.679 461.968C324.679 461.632 324.495 461.384 324.127 461.224C323.759 461.064 323.151 460.888 322.303 460.696C321.343 460.504 320.543 460.288 319.903 460.048C319.263 459.808 318.703 459.416 318.223 458.872C317.759 458.328 317.527 457.592 317.527 456.664C317.527 455.864 317.743 455.144 318.175 454.504C318.607 453.848 319.239 453.328 320.071 452.944C320.919 452.56 321.935 452.368 323.119 452.368C324.879 452.368 326.263 452.8 327.271 453.664C328.279 454.528 328.863 455.664 329.023 457.072H324.775C324.695 456.64 324.503 456.312 324.199 456.088C323.911 455.848 323.519 455.728 323.023 455.728C322.639 455.728 322.343 455.8 322.135 455.944C321.943 456.088 321.847 456.288 321.847 456.544C321.847 456.864 322.031 457.112 322.399 457.288C322.767 457.448 323.359 457.616 324.175 457.792C325.151 458 325.959 458.232 326.599 458.488C327.255 458.744 327.823 459.16 328.303 459.736C328.799 460.296 329.047 461.064 329.047 462.04C329.047 462.824 328.815 463.528 328.351 464.152C327.903 464.776 327.255 465.272 326.407 465.64C325.575 465.992 324.591 466.168 323.455 466.168ZM342.016 453.832C343.696 453.832 345.064 455.2 345.064 456.88C345.064 458.584 343.696 459.952 342.016 459.952C340.312 459.952 338.944 458.584 338.944 456.88C338.944 455.2 340.312 453.832 342.016 453.832ZM364.168 452.416C365.72 452.416 366.952 452.936 367.864 453.976C368.776 455 369.232 456.392 369.232 458.152V466H364.528V458.776C364.528 458.008 364.328 457.408 363.928 456.976C363.528 456.528 362.992 456.304 362.32 456.304C361.616 456.304 361.064 456.528 360.664 456.976C360.264 457.408 360.064 458.008 360.064 458.776V466H355.36V452.536H360.064V454.456C360.48 453.848 361.04 453.36 361.744 452.992C362.448 452.608 363.256 452.416 364.168 452.416ZM385.589 452.536V466H380.861V464.08C380.461 464.688 379.909 465.184 379.205 465.568C378.501 465.936 377.693 466.12 376.781 466.12C375.213 466.12 373.973 465.608 373.061 464.584C372.165 463.544 371.717 462.136 371.717 460.36V452.536H376.397V459.76C376.397 460.528 376.597 461.136 376.997 461.584C377.413 462.016 377.957 462.232 378.629 462.232C379.317 462.232 379.861 462.016 380.261 461.584C380.661 461.136 380.861 460.528 380.861 459.76V452.536H385.589ZM396.666 466L394.242 462.616L392.322 466H387.162L391.65 459.016L386.97 452.536H392.25L394.674 455.92L396.618 452.536H401.778L397.194 459.4L401.946 466H396.666ZM411.28 461.992V466H409.24C405.8 466 404.08 464.296 404.08 460.888V456.448H402.424V452.536H404.08V449.272H408.808V452.536H411.256V456.448H408.808V460.96C408.808 461.328 408.888 461.592 409.048 461.752C409.224 461.912 409.512 461.992 409.912 461.992H411.28ZM420.384 451.288C419.552 451.288 418.88 451.064 418.368 450.616C417.872 450.152 417.624 449.576 417.624 448.888C417.624 448.184 417.872 447.6 418.368 447.136C418.88 446.672 419.552 446.44 420.384 446.44C421.2 446.44 421.856 446.672 422.352 447.136C422.864 447.6 423.12 448.184 423.12 448.888C423.12 449.576 422.864 450.152 422.352 450.616C421.856 451.064 421.2 451.288 420.384 451.288ZM422.736 467.32C422.736 470.728 421.024 472.432 417.6 472.432H415.896V468.424H416.904C417.304 468.424 417.592 468.344 417.768 468.184C417.944 468.024 418.032 467.76 418.032 467.392V452.536H422.736V467.32ZM431.127 466.168C429.911 466.168 428.823 465.968 427.863 465.568C426.919 465.152 426.167 464.592 425.607 463.888C425.063 463.168 424.759 462.36 424.695 461.464H429.255C429.319 461.896 429.519 462.232 429.855 462.472C430.191 462.712 430.607 462.832 431.103 462.832C431.487 462.832 431.791 462.752 432.015 462.592C432.239 462.432 432.351 462.224 432.351 461.968C432.351 461.632 432.167 461.384 431.799 461.224C431.431 461.064 430.823 460.888 429.975 460.696C429.015 460.504 428.215 460.288 427.575 460.048C426.935 459.808 426.375 459.416 425.895 458.872C425.431 458.328 425.199 457.592 425.199 456.664C425.199 455.864 425.415 455.144 425.847 454.504C426.279 453.848 426.911 453.328 427.743 452.944C428.591 452.56 429.607 452.368 430.791 452.368C432.551 452.368 433.935 452.8 434.943 453.664C435.951 454.528 436.535 455.664 436.695 457.072H432.447C432.367 456.64 432.175 456.312 431.871 456.088C431.583 455.848 431.191 455.728 430.695 455.728C430.311 455.728 430.015 455.8 429.807 455.944C429.615 456.088 429.519 456.288 429.519 456.544C429.519 456.864 429.703 457.112 430.071 457.288C430.439 457.448 431.031 457.616 431.847 457.792C432.823 458 433.631 458.232 434.271 458.488C434.927 458.744 435.495 459.16 435.975 459.736C436.471 460.296 436.719 461.064 436.719 462.04C436.719 462.824 436.487 463.528 436.023 464.152C435.575 464.776 434.927 465.272 434.079 465.64C433.247 465.992 432.263 466.168 431.127 466.168ZM449.688 453.832C451.368 453.832 452.736 455.2 452.736 456.88C452.736 458.584 451.368 459.952 449.688 459.952C447.984 459.952 446.616 458.584 446.616 456.88C446.616 455.2 447.984 453.832 449.688 453.832ZM470.976 461.992V466H468.936C465.496 466 463.776 464.296 463.776 460.888V456.448H462.12V452.536H463.776V449.272H468.504V452.536H470.952V456.448H468.504V460.96C468.504 461.328 468.584 461.592 468.743 461.752C468.92 461.912 469.208 461.992 469.608 461.992H470.976ZM472.365 459.256C472.365 457.864 472.613 456.648 473.109 455.608C473.621 454.568 474.309 453.768 475.173 453.208C476.053 452.648 477.029 452.368 478.101 452.368C479.029 452.368 479.829 452.552 480.501 452.92C481.173 453.288 481.693 453.784 482.061 454.408V452.536H486.765V466H482.061V464.128C481.693 464.752 481.165 465.248 480.477 465.616C479.805 465.984 479.013 466.168 478.101 466.168C477.029 466.168 476.053 465.888 475.173 465.328C474.309 464.768 473.621 463.968 473.109 462.928C472.613 461.872 472.365 460.648 472.365 459.256ZM482.061 459.256C482.061 458.392 481.821 457.712 481.341 457.216C480.877 456.72 480.301 456.472 479.613 456.472C478.909 456.472 478.325 456.72 477.861 457.216C477.397 457.696 477.165 458.376 477.165 459.256C477.165 460.12 477.397 460.808 477.861 461.32C478.325 461.816 478.909 462.064 479.613 462.064C480.301 462.064 480.877 461.816 481.341 461.32C481.821 460.824 482.061 460.136 482.061 459.256ZM491.822 451.288C490.99 451.288 490.318 451.064 489.806 450.616C489.31 450.152 489.062 449.576 489.062 448.888C489.062 448.184 489.31 447.6 489.806 447.136C490.318 446.672 490.99 446.44 491.822 446.44C492.638 446.44 493.294 446.672 493.79 447.136C494.302 447.6 494.558 448.184 494.558 448.888C494.558 449.576 494.302 450.152 493.79 450.616C493.294 451.064 492.638 451.288 491.822 451.288ZM494.15 452.536V466H489.446V452.536H494.15ZM501.532 448.24V466H496.828V448.24H501.532ZM524.107 452.536L520.675 466H515.395L513.523 457.84L511.579 466H506.323L502.915 452.536H507.595L509.107 461.464L511.099 452.536H516.139L518.203 461.488L519.691 452.536H524.107ZM527.822 451.288C526.99 451.288 526.318 451.064 525.806 450.616C525.31 450.152 525.062 449.576 525.062 448.888C525.062 448.184 525.31 447.6 525.806 447.136C526.318 446.672 526.99 446.44 527.822 446.44C528.638 446.44 529.294 446.672 529.79 447.136C530.302 447.6 530.558 448.184 530.558 448.888C530.558 449.576 530.302 450.152 529.79 450.616C529.294 451.064 528.638 451.288 527.822 451.288ZM530.15 452.536V466H525.446V452.536H530.15ZM541.636 452.416C543.188 452.416 544.42 452.936 545.332 453.976C546.244 455 546.7 456.392 546.7 458.152V466H541.996V458.776C541.996 458.008 541.796 457.408 541.396 456.976C540.996 456.528 540.46 456.304 539.788 456.304C539.084 456.304 538.532 456.528 538.132 456.976C537.732 457.408 537.532 458.008 537.532 458.776V466H532.828V452.536H537.532V454.456C537.948 453.848 538.508 453.36 539.212 452.992C539.916 452.608 540.724 452.416 541.636 452.416ZM548.514 459.256C548.514 457.864 548.762 456.648 549.258 455.608C549.77 454.568 550.466 453.768 551.346 453.208C552.226 452.648 553.202 452.368 554.273 452.368C555.138 452.368 555.906 452.552 556.578 452.92C557.266 453.272 557.802 453.76 558.186 454.384V448.24H562.914V466H558.186V464.128C557.818 464.752 557.298 465.248 556.626 465.616C555.954 465.984 555.162 466.168 554.25 466.168C553.178 466.168 552.202 465.888 551.322 465.328C550.458 464.768 549.77 463.968 549.258 462.928C548.762 461.872 548.514 460.648 548.514 459.256ZM558.21 459.256C558.21 458.392 557.97 457.712 557.49 457.216C557.026 456.72 556.45 456.472 555.762 456.472C555.058 456.472 554.474 456.72 554.01 457.216C553.546 457.696 553.314 458.376 553.314 459.256C553.314 460.12 553.546 460.808 554.01 461.32C554.474 461.816 555.058 462.064 555.762 462.064C556.45 462.064 557.026 461.816 557.49 461.32C557.97 460.824 558.21 460.136 558.21 459.256ZM564.826 459.256C564.826 457.864 565.114 456.648 565.69 455.608C566.266 454.568 567.066 453.768 568.09 453.208C569.13 452.648 570.314 452.368 571.642 452.368C573.354 452.368 574.794 452.84 575.962 453.784C577.13 454.712 577.882 456.016 578.218 457.696H573.226C572.938 456.816 572.378 456.376 571.546 456.376C570.954 456.376 570.482 456.624 570.13 457.12C569.794 457.6 569.626 458.312 569.626 459.256C569.626 460.2 569.794 460.92 570.13 461.416C570.482 461.912 570.954 462.16 571.546 462.16C572.394 462.16 572.954 461.72 573.226 460.84H578.218C577.882 462.504 577.13 463.808 575.962 464.752C574.794 465.696 573.354 466.168 571.642 466.168C570.314 466.168 569.13 465.888 568.09 465.328C567.066 464.768 566.266 463.968 565.69 462.928C565.114 461.888 564.826 460.664 564.826 459.256ZM585.908 466.168C584.692 466.168 583.604 465.968 582.644 465.568C581.7 465.152 580.948 464.592 580.388 463.888C579.844 463.168 579.54 462.36 579.476 461.464H584.036C584.1 461.896 584.3 462.232 584.636 462.472C584.972 462.712 585.388 462.832 585.884 462.832C586.268 462.832 586.572 462.752 586.796 462.592C587.02 462.432 587.132 462.224 587.132 461.968C587.132 461.632 586.948 461.384 586.58 461.224C586.212 461.064 585.604 460.888 584.756 460.696C583.796 460.504 582.996 460.288 582.356 460.048C581.716 459.808 581.156 459.416 580.676 458.872C580.212 458.328 579.98 457.592 579.98 456.664C579.98 455.864 580.196 455.144 580.628 454.504C581.06 453.848 581.692 453.328 582.524 452.944C583.372 452.56 584.388 452.368 585.572 452.368C587.332 452.368 588.716 452.8 589.724 453.664C590.732 454.528 591.316 455.664 591.476 457.072H587.228C587.148 456.64 586.956 456.312 586.652 456.088C586.364 455.848 585.972 455.728 585.476 455.728C585.092 455.728 584.796 455.8 584.588 455.944C584.396 456.088 584.3 456.288 584.3 456.544C584.3 456.864 584.484 457.112 584.852 457.288C585.22 457.448 585.812 457.616 586.628 457.792C587.604 458 588.412 458.232 589.052 458.488C589.708 458.744 590.276 459.16 590.756 459.736C591.252 460.296 591.5 461.064 591.5 462.04C591.5 462.824 591.268 463.528 590.804 464.152C590.356 464.776 589.708 465.272 588.86 465.64C588.028 465.992 587.044 466.168 585.908 466.168ZM599.549 466.168C598.333 466.168 597.245 465.968 596.285 465.568C595.341 465.152 594.589 464.592 594.029 463.888C593.485 463.168 593.181 462.36 593.117 461.464H597.677C597.741 461.896 597.941 462.232 598.277 462.472C598.613 462.712 599.029 462.832 599.525 462.832C599.909 462.832 600.213 462.752 600.437 462.592C600.661 462.432 600.773 462.224 600.773 461.968C600.773 461.632 600.589 461.384 600.221 461.224C599.853 461.064 599.245 460.888 598.397 460.696C597.437 460.504 596.637 460.288 595.997 460.048C595.357 459.808 594.797 459.416 594.317 458.872C593.853 458.328 593.621 457.592 593.621 456.664C593.621 455.864 593.837 455.144 594.269 454.504C594.701 453.848 595.333 453.328 596.165 452.944C597.013 452.56 598.029 452.368 599.213 452.368C600.973 452.368 602.357 452.8 603.365 453.664C604.373 454.528 604.957 455.664 605.117 457.072H600.869C600.789 456.64 600.597 456.312 600.293 456.088C600.005 455.848 599.613 455.728 599.117 455.728C598.733 455.728 598.437 455.8 598.229 455.944C598.037 456.088 597.941 456.288 597.941 456.544C597.941 456.864 598.125 457.112 598.493 457.288C598.861 457.448 599.453 457.616 600.269 457.792C601.245 458 602.053 458.232 602.693 458.488C603.349 458.744 603.917 459.16 604.397 459.736C604.893 460.296 605.141 461.064 605.141 462.04C605.141 462.824 604.909 463.528 604.445 464.152C603.997 464.776 603.349 465.272 602.501 465.64C601.669 465.992 600.685 466.168 599.549 466.168Z" fill="#64758B"/>
<path d="M773.21 456.448H771.098V466H766.37V456.448H764.906V452.536H766.37V452.416C766.37 450.688 766.874 449.368 767.882 448.456C768.906 447.528 770.37 447.064 772.274 447.064C772.658 447.064 772.954 447.072 773.162 447.088V451.096C773.034 451.08 772.858 451.072 772.634 451.072C772.122 451.072 771.746 451.192 771.506 451.432C771.266 451.656 771.13 452.024 771.098 452.536H773.21V456.448ZM777.267 451.288C776.435 451.288 775.763 451.064 775.251 450.616C774.755 450.152 774.507 449.576 774.507 448.888C774.507 448.184 774.755 447.6 775.251 447.136C775.763 446.672 776.435 446.44 777.267 446.44C778.083 446.44 778.739 446.672 779.235 447.136C779.747 447.6 780.003 448.184 780.003 448.888C780.003 449.576 779.747 450.152 779.235 450.616C778.739 451.064 778.083 451.288 777.267 451.288ZM779.595 452.536V466H774.891V452.536H779.595ZM787.242 452.368C788.154 452.368 788.946 452.552 789.618 452.92C790.306 453.288 790.834 453.784 791.202 454.408V452.536H795.906V465.856C795.906 467.12 795.666 468.256 795.186 469.264C794.706 470.288 793.954 471.104 792.93 471.712C791.922 472.32 790.642 472.624 789.09 472.624C787.01 472.624 785.346 472.136 784.098 471.16C782.85 470.184 782.138 468.856 781.962 467.176H786.594C786.69 467.608 786.93 467.944 787.314 468.184C787.698 468.424 788.194 468.544 788.802 468.544C790.402 468.544 791.202 467.648 791.202 465.856V464.128C790.834 464.752 790.306 465.248 789.618 465.616C788.946 465.984 788.154 466.168 787.242 466.168C786.17 466.168 785.194 465.888 784.314 465.328C783.45 464.768 782.762 463.968 782.25 462.928C781.754 461.872 781.506 460.648 781.506 459.256C781.506 457.864 781.754 456.648 782.25 455.608C782.762 454.568 783.45 453.768 784.314 453.208C785.194 452.648 786.17 452.368 787.242 452.368ZM791.202 459.256C791.202 458.392 790.962 457.712 790.482 457.216C790.018 456.72 789.442 456.472 788.754 456.472C788.05 456.472 787.466 456.72 787.002 457.216C786.538 457.696 786.306 458.376 786.306 459.256C786.306 460.12 786.538 460.808 787.002 461.32C787.466 461.816 788.05 462.064 788.754 462.064C789.442 462.064 790.018 461.816 790.482 461.32C790.962 460.824 791.202 460.136 791.202 459.256ZM816.178 452.416C817.874 452.416 819.202 452.928 820.162 453.952C821.138 454.976 821.626 456.376 821.626 458.152V466H816.922V458.776C816.922 458.056 816.722 457.496 816.322 457.096C815.922 456.696 815.378 456.496 814.69 456.496C814.002 456.496 813.458 456.696 813.058 457.096C812.658 457.496 812.458 458.056 812.458 458.776V466H807.754V458.776C807.754 458.056 807.554 457.496 807.154 457.096C806.77 456.696 806.234 456.496 805.546 456.496C804.842 456.496 804.29 456.696 803.89 457.096C803.49 457.496 803.29 458.056 803.29 458.776V466H798.586V452.536H803.29V454.312C803.706 453.736 804.242 453.28 804.898 452.944C805.57 452.592 806.338 452.416 807.202 452.416C808.194 452.416 809.074 452.632 809.842 453.064C810.626 453.496 811.242 454.104 811.69 454.888C812.17 454.152 812.802 453.56 813.586 453.112C814.37 452.648 815.234 452.416 816.178 452.416ZM823.435 459.256C823.435 457.864 823.683 456.648 824.179 455.608C824.691 454.568 825.379 453.768 826.243 453.208C827.123 452.648 828.099 452.368 829.171 452.368C830.099 452.368 830.899 452.552 831.571 452.92C832.243 453.288 832.763 453.784 833.131 454.408V452.536H837.835V466H833.131V464.128C832.763 464.752 832.235 465.248 831.547 465.616C830.875 465.984 830.083 466.168 829.171 466.168C828.099 466.168 827.123 465.888 826.243 465.328C825.379 464.768 824.691 463.968 824.179 462.928C823.683 461.872 823.435 460.648 823.435 459.256ZM833.131 459.256C833.131 458.392 832.891 457.712 832.411 457.216C831.947 456.72 831.371 456.472 830.683 456.472C829.979 456.472 829.395 456.72 828.931 457.216C828.467 457.696 828.235 458.376 828.235 459.256C828.235 460.12 828.467 460.808 828.931 461.32C829.395 461.816 829.979 462.064 830.683 462.064C831.371 462.064 831.947 461.816 832.411 461.32C832.891 460.824 833.131 460.136 833.131 459.256Z" fill="#64758B"/>
<path d="M1066.09 449.8H1085.94V461.848H1082.91V452.632H1068.99V461.968H1066.09V449.8ZM1067.6 457.792H1084.59V460.624H1067.6V457.792ZM1074.42 445.624H1077.46V468.16H1074.42V445.624ZM1104.58 450.976L1107.66 451.864C1104.63 460.504 1099.04 465.544 1090.45 468.232C1090.11 467.512 1089.2 466.12 1088.62 465.424C1096.93 463.24 1102.09 458.8 1104.58 450.976ZM1095.32 451.168C1097.74 458.272 1102.93 463.384 1111.47 465.304C1110.78 465.976 1109.84 467.344 1109.38 468.184C1100.38 465.832 1095.44 460.336 1092.44 452.032L1095.32 451.168ZM1089.06 449.416H1111.04V452.248H1089.06V449.416ZM1098.49 445.624H1101.46V451.144H1098.49V445.624ZM1124 453.832C1125.68 453.832 1127.05 455.2 1127.05 456.88C1127.05 458.584 1125.68 459.952 1124 459.952C1122.3 459.952 1120.93 458.584 1120.93 456.88C1120.93 455.2 1122.3 453.832 1124 453.832ZM1139.67 447.064H1156.42V467.848H1153.33V449.968H1142.65V467.872H1139.67V447.064ZM1141.71 455.128H1154.62V457.984H1141.71V455.128ZM1141.69 463.408H1154.62V466.312H1141.69V463.408ZM1161.39 450.28H1182.63V453.208H1161.39V450.28ZM1166.34 461.176H1177.47V464.104H1166.34V461.176ZM1170.44 445.624H1173.51V468.16H1170.44V445.624ZM1169.58 451.336L1172.22 452.176C1170.15 457.408 1166.74 461.992 1162.54 464.632C1162.06 463.912 1161.1 462.808 1160.46 462.232C1164.39 460.072 1167.87 455.752 1169.58 451.336ZM1174.38 451.408C1176.13 455.68 1179.63 459.856 1183.66 461.944C1182.94 462.544 1181.91 463.744 1181.43 464.56C1177.21 461.968 1173.85 457.384 1171.76 452.272L1174.38 451.408ZM1195.28 459.136H1205.82V468.064H1203.01V461.704H1197.97V468.16H1195.28V459.136ZM1194.8 450.472H1205.29V456.712H1202.53V452.92H1194.8V450.472ZM1197.73 447.328L1200.54 447.544C1200.13 450.568 1199.48 454.408 1199 456.712H1196.19C1196.74 454.288 1197.37 450.352 1197.73 447.328ZM1194.42 446.32H1206.51V448.768H1194.42V446.32ZM1193.53 455.344H1207.35V457.864H1193.53V455.344ZM1196.36 464.68H1204.64V467.248H1196.36V464.68ZM1185.87 453.16H1192.81V455.32H1185.87V453.16ZM1186.02 446.368H1192.83V448.552H1186.02V446.368ZM1185.87 456.52H1192.81V458.68H1185.87V456.52ZM1184.7 449.704H1193.67V451.96H1184.7V449.704ZM1187.19 459.904H1192.98V467.2H1187.19V464.944H1190.5V462.184H1187.19V459.904ZM1185.8 459.904H1188.22V468.16H1185.8V459.904ZM1220 453.832C1221.68 453.832 1223.05 455.2 1223.05 456.88C1223.05 458.584 1221.68 459.952 1220 459.952C1218.3 459.952 1216.93 458.584 1216.93 456.88C1216.93 455.2 1218.3 453.832 1220 453.832ZM1239.33 466.24C1238.88 466.24 1238.47 466.192 1238.11 466.096C1237.74 466.016 1237.41 465.896 1237.12 465.736L1237.46 463.744C1237.57 463.776 1237.67 463.8 1237.77 463.816C1237.88 463.832 1237.99 463.84 1238.08 463.84C1238.35 463.84 1238.55 463.776 1238.66 463.648C1238.79 463.504 1238.85 463.288 1238.85 463V461.248C1238.85 460.464 1239.01 459.856 1239.33 459.424C1239.65 458.976 1240.14 458.672 1240.79 458.512L1240.82 458.416L1238.2 457.48V456.856C1238.2 456.072 1238.43 455.352 1238.87 454.696C1239.32 454.04 1239.99 453.52 1240.89 453.136C1241.79 452.736 1242.89 452.536 1244.2 452.536C1245.43 452.536 1246.5 452.728 1247.39 453.112C1248.29 453.48 1248.98 454.04 1249.46 454.792C1249.95 455.528 1250.2 456.464 1250.2 457.6V466H1246.6V457.816C1246.6 457.016 1246.39 456.416 1245.95 456.016C1245.54 455.616 1244.94 455.416 1244.15 455.416C1243.42 455.416 1242.87 455.576 1242.5 455.896C1242.13 456.2 1241.93 456.576 1241.9 457.024L1243.99 457.96L1243.72 459.52C1243.27 459.52 1242.93 459.672 1242.69 459.976C1242.47 460.264 1242.35 460.736 1242.35 461.392V463.408C1242.35 464.432 1242.07 465.16 1241.49 465.592C1240.93 466.024 1240.21 466.24 1239.33 466.24ZM1257.04 466V457.312C1257.04 456.64 1256.88 456.152 1256.56 455.848C1256.25 455.544 1255.75 455.392 1255.04 455.392C1254.52 455.392 1254.03 455.464 1253.58 455.608C1253.15 455.752 1252.74 455.928 1252.36 456.136V453.256C1252.71 453.096 1253.2 452.936 1253.84 452.776C1254.48 452.616 1255.24 452.536 1256.1 452.536C1256.98 452.536 1257.76 452.664 1258.43 452.92C1259.12 453.176 1259.65 453.608 1260.04 454.216C1260.44 454.808 1260.64 455.624 1260.64 456.664V466H1257.04ZM1270.13 466.312C1268.67 466.312 1267.49 466.096 1266.58 465.664C1265.68 465.216 1265.02 464.568 1264.61 463.72C1264.19 462.872 1263.98 461.832 1263.98 460.6V452.848H1267.56V460.792C1267.56 461.672 1267.76 462.336 1268.16 462.784C1268.58 463.232 1269.25 463.456 1270.18 463.456C1271.07 463.456 1271.71 463.248 1272.1 462.832C1272.48 462.4 1272.67 461.72 1272.67 460.792V452.848H1276.25V460.6C1276.25 461.832 1276.04 462.872 1275.62 463.72C1275.21 464.568 1274.55 465.216 1273.66 465.664C1272.76 466.096 1271.58 466.312 1270.13 466.312ZM1271.66 460.768C1270.91 460.768 1270.31 460.648 1269.86 460.408C1269.43 460.152 1269.13 459.832 1268.95 459.448C1268.78 459.048 1268.69 458.648 1268.69 458.248C1268.69 457.96 1268.73 457.656 1268.81 457.336C1268.89 457.016 1269.01 456.76 1269.17 456.568L1271.3 457C1271.26 457.096 1271.22 457.208 1271.18 457.336C1271.17 457.448 1271.16 457.56 1271.16 457.672C1271.16 457.88 1271.22 458.064 1271.35 458.224C1271.48 458.368 1271.66 458.44 1271.88 458.44H1277.64V460.768H1271.66ZM1283.66 466V457.312C1283.66 456.64 1283.5 456.152 1283.18 455.848C1282.88 455.544 1282.37 455.392 1281.67 455.392C1281.14 455.392 1280.65 455.464 1280.2 455.608C1279.77 455.752 1279.36 455.928 1278.98 456.136V453.256C1279.33 453.096 1279.83 452.936 1280.47 452.776C1281.11 452.616 1281.86 452.536 1282.72 452.536C1283.6 452.536 1284.38 452.664 1285.05 452.92C1285.74 453.176 1286.28 453.608 1286.66 454.216C1287.06 454.808 1287.26 455.624 1287.26 456.664V466H1283.66ZM1291.45 455.248V451.744C1291.45 451.136 1291.51 450.648 1291.62 450.28C1291.73 449.896 1291.88 449.584 1292.07 449.344C1292.27 449.104 1292.47 448.904 1292.67 448.744L1292.65 448.648H1288.93L1289.6 446.056H1297.23V448.648C1296.64 448.648 1296.13 448.84 1295.7 449.224C1295.27 449.608 1295.05 450.312 1295.05 451.336V455.248H1291.45ZM1294.79 466.24C1294.07 466.24 1293.46 466.128 1292.96 465.904C1292.47 465.68 1292.09 465.344 1291.83 464.896C1291.58 464.432 1291.45 463.856 1291.45 463.168V452.848H1295.05V462.736C1295.05 463.04 1295.11 463.264 1295.24 463.408C1295.39 463.552 1295.6 463.624 1295.89 463.624C1296.02 463.624 1296.15 463.608 1296.3 463.576C1296.44 463.544 1296.58 463.504 1296.71 463.456L1297.04 465.76C1296.74 465.92 1296.39 466.04 1296.01 466.12C1295.63 466.2 1295.22 466.24 1294.79 466.24ZM1299.1 466V452.848H1301.74L1302.22 454.912H1302.41C1302.68 454.256 1303.15 453.712 1303.83 453.28C1304.5 452.832 1305.37 452.608 1306.44 452.608C1307.47 452.608 1308.31 452.792 1308.99 453.16C1309.66 453.512 1310.16 454.056 1310.5 454.792C1310.85 455.512 1311.03 456.424 1311.03 457.528V466H1307.43V458.248C1307.43 457.352 1307.24 456.712 1306.87 456.328C1306.52 455.928 1306 455.728 1305.31 455.728C1304.75 455.728 1304.27 455.88 1303.87 456.184C1303.49 456.488 1303.19 456.936 1302.99 457.528C1302.79 458.104 1302.7 458.832 1302.7 459.712V466H1299.1ZM1319.94 466.312C1318.5 466.312 1317.35 466.144 1316.49 465.808C1315.62 465.456 1314.99 464.968 1314.59 464.344C1314.21 463.72 1314.02 463 1314.02 462.184C1314.02 461.48 1314.12 460.912 1314.33 460.48C1314.55 460.048 1314.83 459.72 1315.17 459.496C1315.52 459.256 1315.87 459.096 1316.22 459.016V458.872C1315.86 458.744 1315.5 458.568 1315.17 458.344C1314.83 458.12 1314.55 457.816 1314.33 457.432C1314.12 457.048 1314.02 456.568 1314.02 455.992C1314.02 455.4 1314.15 454.848 1314.42 454.336C1314.71 453.824 1315.17 453.416 1315.79 453.112C1316.42 452.792 1317.24 452.632 1318.26 452.632C1318.76 452.632 1319.24 452.672 1319.7 452.752C1320.17 452.816 1320.53 452.912 1320.78 453.04L1320.23 455.464C1320.1 455.432 1319.93 455.4 1319.7 455.368C1319.5 455.32 1319.28 455.296 1319.06 455.296C1318.56 455.296 1318.19 455.416 1317.95 455.656C1317.71 455.88 1317.59 456.176 1317.59 456.544C1317.59 456.928 1317.7 457.224 1317.9 457.432C1318.11 457.64 1318.38 457.784 1318.7 457.864C1319.03 457.944 1319.38 457.984 1319.73 457.984H1320.23V460.216H1319.73C1319.04 460.216 1318.52 460.336 1318.17 460.576C1317.83 460.816 1317.66 461.208 1317.66 461.752C1317.66 462.04 1317.73 462.328 1317.86 462.616C1318 462.888 1318.24 463.12 1318.58 463.312C1318.91 463.488 1319.39 463.576 1320.02 463.576C1320.61 463.576 1321.07 463.488 1321.41 463.312C1321.74 463.136 1321.98 462.904 1322.13 462.616C1322.27 462.312 1322.34 461.976 1322.34 461.608V452.848H1325.94V461.488C1325.94 463.136 1325.46 464.352 1324.48 465.136C1323.52 465.92 1322.01 466.312 1319.94 466.312Z" fill="#64758B"/>
</svg>
